<svg xmlns="http://www.w3.org/2000/svg" viewBox="0 0 32 32">
  <circle cx="16" cy="16" r="16" fill="#0a0a0a"/>
  <path
    d="M27 715H453V544H443Q443 609 411.0 658.0Q379 707 323 707H228V347H269Q306 347 331.5 363.5Q357 380 380 412V274Q355 309 331.0 324.0Q307 339 269 339H228V8H308V0H27V8H91V707H27Z"
    transform="translate(4.28, 7.42) scale(0.024) translate(0, 715) scale(1, -1)"
    fill="#ffffff"
    stroke="#ffffff"
    stroke-width="80"
    stroke-linejoin="round"
  />
  <path
    d="M36 8 330 707H185Q116 707 86.5 660.0Q57 613 57 552H47V715H476V707L183 8H345Q414 8 443.5 55.0Q473 102 473 163H483V0H36Z"
    transform="translate(15.48, 7.42) scale(0.024) translate(519, 0) scale(-1, 1)"
    fill="#ffffff"
    stroke="#ffffff"
    stroke-width="80"
    stroke-linejoin="round"
  />
</svg>
